<svg width="32" height="32" viewBox="0 0 32 32" fill="none" xmlns="http://www.w3.org/2000/svg">
  <defs>
    <clipPath id="clip_retro">
      <rect width="32" height="32" fill="white"/>
    </clipPath>

    <!-- Retro warm background gradient -->
    <linearGradient id="bg_retro" x1="0" y1="0" x2="32" y2="32" gradientUnits="userSpaceOnUse">
      <stop offset="0%" stop-color="#f5e6c8"/>
      <stop offset="100%" stop-color="#e8c97a"/>
    </linearGradient>

    <!-- X face: faded vintage orange-red -->
    <linearGradient id="x_grad" x1="5" y1="5" x2="27" y2="27" gradientUnits="userSpaceOnUse">
      <stop offset="0%" stop-color="#c0392b"/>
      <stop offset="100%" stop-color="#7b1a10"/>
    </linearGradient>

    <!-- Halftone-ish texture feel via radialGradient dots pattern -->
    <pattern id="halftone" x="0" y="0" width="3" height="3" patternUnits="userSpaceOnUse">
      <circle cx="1.5" cy="1.5" r="0.6" fill="#b8860b" fill-opacity="0.18"/>
    </pattern>

    <!-- Worn/aged vignette -->
    <radialGradient id="vignette" cx="50%" cy="50%" r="70%" gradientUnits="userSpaceOnUse">
      <stop offset="0%" stop-color="transparent"/>
      <stop offset="100%" stop-color="#3b1a00" stop-opacity="0.55"/>
    </radialGradient>

    <!-- Stamp border gradient -->
    <linearGradient id="stamp_grad" x1="0" y1="0" x2="32" y2="32" gradientUnits="userSpaceOnUse">
      <stop offset="0%" stop-color="#8B4513"/>
      <stop offset="100%" stop-color="#4a1a00"/>
    </linearGradient>

  </defs>

  <g clip-path="url(#clip_retro)">

    <!-- Background: warm parchment -->
    <rect width="32" height="32" fill="url(#bg_retro)"/>

    <!-- Halftone texture overlay -->
    <rect width="32" height="32" fill="url(#halftone)"/>

    <!-- Aged grain texture lines -->
    <line x1="0" y1="4" x2="32" y2="4" stroke="#c8a84a" stroke-width="0.15" stroke-opacity="0.4"/>
    <line x1="0" y1="8" x2="32" y2="8" stroke="#c8a84a" stroke-width="0.15" stroke-opacity="0.3"/>
    <line x1="0" y1="12" x2="32" y2="12" stroke="#c8a84a" stroke-width="0.2" stroke-opacity="0.4"/>
    <line x1="0" y1="16" x2="32" y2="16" stroke="#c8a84a" stroke-width="0.15" stroke-opacity="0.3"/>
    <line x1="0" y1="20" x2="32" y2="20" stroke="#c8a84a" stroke-width="0.15" stroke-opacity="0.4"/>
    <line x1="0" y1="24" x2="32" y2="24" stroke="#c8a84a" stroke-width="0.2" stroke-opacity="0.3"/>
    <line x1="0" y1="28" x2="32" y2="28" stroke="#c8a84a" stroke-width="0.15" stroke-opacity="0.4"/>

    <!-- Outer stamp/postage border (perforated feel) -->
    <rect x="1" y="1" width="30" height="30" rx="1"
          fill="none" stroke="url(#stamp_grad)" stroke-width="1.2"
          stroke-dasharray="1.5 1.2"/>

    <!-- Inner border frame -->
    <rect x="2.8" y="2.8" width="26.4" height="26.4" rx="0.5"
          fill="none" stroke="#8B4513" stroke-width="0.4" stroke-opacity="0.7"/>

    <!-- Drop shadow for X (slightly offset, dark) -->
    <path d="M7.2 6.2H12.8L16 11.4L19.2 6.2H24.8L18.4 15.2L25.8 27.2H20L16 21.2L12 27.2H6.2L13.6 15.2L7.2 6.2Z"
          fill="#3b0f00" opacity="0.35" transform="translate(0.7, 0.7)"/>

    <!-- X main face -->
    <path d="M7.2 6.2H12.8L16 11.4L19.2 6.2H24.8L18.4 15.2L25.8 27.2H20L16 21.2L12 27.2H6.2L13.6 15.2L7.2 6.2Z"
          fill="url(#x_grad)"/>

    <!-- Worn highlight on X top-left -->
    <path d="M7.2 6.2H12.8L15 9.5L13 11L10 6.2H7.2Z"
          fill="#e85d45" opacity="0.45"/>

    <!-- Faded center highlight streak -->
    <path d="M14.5 14L16 11.4L17.5 14L16 16.5Z"
          fill="#e85d45" opacity="0.25"/>

    <!-- Ink bleed / worn edge on X -->
    <path d="M7.2 6.2H12.8L16 11.4L19.2 6.2H24.8L18.4 15.2L25.8 27.2H20L16 21.2L12 27.2H6.2L13.6 15.2L7.2 6.2Z"
          fill="none" stroke="#4a0f00" stroke-width="0.5" stroke-opacity="0.6"/>

    <!-- Vignette aging overlay -->
    <rect width="32" height="32" fill="url(#vignette)"/>

    <!-- Worn corner spots -->
    <circle cx="2" cy="2" r="1.2" fill="#8B4513" opacity="0.2"/>
    <circle cx="30" cy="2" r="1.2" fill="#8B4513" opacity="0.2"/>
    <circle cx="2" cy="30" r="1.2" fill="#8B4513" opacity="0.2"/>
    <circle cx="30" cy="30" r="1.2" fill="#8B4513" opacity="0.2"/>

  </g>
</svg>